<svg xmlns="http://www.w3.org/2000/svg" xmlns:xlink="http://www.w3.org/1999/xlink" width="704" zoomAndPan="magnify" viewBox="0 0 528 177.750001" height="237" preserveAspectRatio="xMidYMid meet" version="1.0"><defs><clipPath id="1e7d09849b"><path d="M 308 0.929688 L 417 0.929688 L 417 34 L 308 34 Z M 308 0.929688 " clip-rule="nonzero"/></clipPath><clipPath id="19c631549d"><path d="M 2.917969 65 L 121 65 L 121 154 L 2.917969 154 Z M 2.917969 65 " clip-rule="nonzero"/></clipPath><clipPath id="ef482dfbd0"><path d="M 128 88 L 195 88 L 195 176.859375 L 128 176.859375 Z M 128 88 " clip-rule="nonzero"/></clipPath><clipPath id="a6ae4b8df5"><path d="M 465 64 L 524.933594 64 L 524.933594 154 L 465 154 Z M 465 64 " clip-rule="nonzero"/></clipPath></defs><path fill="#36b1b3" d="M 362.464844 42.601562 C 353.789062 42.601562 345.625 46.007812 339.5 52.054688 C 337.03125 54.527344 337.03125 58.53125 339.5 60.996094 C 340.695312 62.191406 342.3125 62.875 344.011719 62.875 C 345.707031 62.875 347.324219 62.191406 348.519531 60.996094 C 352.261719 57.246094 357.195312 55.203125 362.464844 55.203125 C 367.738281 55.203125 372.757812 57.246094 376.503906 60.996094 C 377.6875 62.191406 379.3125 62.875 381.011719 62.875 C 382.707031 62.875 384.324219 62.191406 385.519531 60.996094 C 387.988281 58.53125 387.988281 54.527344 385.519531 52.054688 C 379.304688 46 371.140625 42.601562 362.464844 42.601562 Z M 362.464844 42.601562 " fill-opacity="1" fill-rule="nonzero"/><g clip-path="url(#1e7d09849b)"><path fill="#36b1b3" d="M 415.039062 22.660156 C 400.992188 8.609375 382.285156 0.859375 362.464844 0.859375 C 342.644531 0.859375 323.9375 8.519531 309.894531 22.578125 C 307.433594 25.050781 307.433594 29.054688 309.894531 31.527344 C 311.089844 32.714844 312.703125 33.398438 314.402344 33.398438 C 316.101562 33.398438 317.71875 32.714844 318.910156 31.527344 C 330.476562 19.941406 345.960938 13.550781 362.457031 13.550781 C 378.957031 13.550781 394.4375 19.933594 406.09375 31.609375 C 407.28125 32.796875 408.90625 33.480469 410.601562 33.480469 C 412.300781 33.480469 413.917969 32.796875 415.113281 31.609375 C 417.492188 29.136719 417.492188 25.132812 415.03125 22.660156 Z M 415.039062 22.660156 " fill-opacity="1" fill-rule="nonzero"/></g><path fill="#36b1b3" d="M 362.464844 22.238281 C 348.347656 22.238281 335.074219 27.6875 325.042969 37.660156 C 323.855469 38.851562 323.167969 40.46875 323.167969 42.175781 C 323.167969 43.886719 323.847656 45.496094 325.042969 46.691406 C 326.230469 47.886719 327.851562 48.570312 329.550781 48.570312 C 331.25 48.570312 332.867188 47.886719 334.058594 46.691406 C 341.628906 39.109375 351.75 34.9375 362.464844 34.9375 C 373.179688 34.9375 383.300781 39.109375 390.871094 46.691406 C 392.066406 47.886719 393.683594 48.570312 395.378906 48.570312 C 397.078125 48.570312 398.695312 47.886719 399.890625 46.691406 C 401.074219 45.503906 401.765625 43.878906 401.765625 42.175781 C 401.765625 40.476562 401.082031 38.859375 399.890625 37.660156 C 389.847656 27.777344 376.582031 22.238281 362.464844 22.238281 Z M 362.464844 22.238281 " fill-opacity="1" fill-rule="nonzero"/><g clip-path="url(#19c631549d)"><path fill="#00254a" d="M 110.492188 65.835938 C 113.296875 65.835938 115.640625 66.742188 117.523438 68.5625 C 119.414062 70.382812 120.363281 72.519531 120.363281 75 C 120.363281 76.078125 120.199219 77.101562 119.867188 78.097656 C 119.53125 79.078125 119.25 80.019531 118.996094 80.925781 L 99.253906 145.953125 C 98.429688 148.515625 97.066406 150.40625 95.175781 151.648438 C 93.277344 152.886719 91.050781 153.503906 88.5 153.503906 C 85.949219 153.503906 83.777344 152.886719 81.96875 151.648438 C 80.152344 150.40625 78.792969 148.515625 77.890625 145.953125 L 61.71875 101.453125 L 45.433594 145.953125 C 44.53125 148.515625 43.164062 150.40625 41.355469 151.648438 C 39.539062 152.886719 37.359375 153.503906 34.808594 153.503906 C 32.257812 153.503906 30.042969 152.886719 28.152344 151.648438 C 26.253906 150.40625 24.894531 148.515625 24.074219 145.953125 L 4.335938 80.921875 C 4 80.015625 3.695312 79.070312 3.40625 78.089844 C 3.117188 77.101562 2.976562 76.070312 2.976562 74.992188 C 2.976562 72.519531 3.917969 70.375 5.800781 68.554688 C 7.691406 66.742188 10.042969 65.828125 12.847656 65.828125 C 15.070312 65.828125 17.101562 66.429688 18.949219 67.628906 C 20.800781 68.824219 22.019531 70.410156 22.597656 72.394531 L 35.558594 121.46875 L 52.597656 72.394531 C 53.503906 69.921875 54.777344 68.207031 56.429688 67.253906 C 58.078125 66.304688 59.804688 65.828125 61.605469 65.828125 C 63.410156 65.828125 65.070312 66.304688 66.796875 67.253906 C 68.523438 68.207031 69.84375 69.914062 70.75 72.394531 L 87.789062 121.46875 L 100.75 72.394531 C 101.3125 70.410156 102.53125 68.828125 104.382812 67.628906 C 106.238281 66.429688 108.277344 65.828125 110.5 65.828125 Z M 110.492188 65.835938 " fill-opacity="1" fill-rule="nonzero"/></g><g clip-path="url(#ef482dfbd0)"><path fill="#00254a" d="M 185.546875 88.09375 C 188.171875 88.09375 190.351562 88.960938 192.078125 90.691406 C 193.808594 92.414062 194.675781 94.472656 194.675781 96.863281 C 194.675781 97.769531 194.546875 98.617188 194.304688 99.402344 C 194.058594 100.191406 193.769531 100.910156 193.4375 101.574219 L 162.449219 169.820312 C 161.375 172.203125 160.015625 173.972656 158.371094 175.128906 C 156.730469 176.28125 154.96875 176.859375 153.070312 176.859375 C 150.511719 176.859375 148.414062 175.96875 146.765625 174.203125 C 145.128906 172.433594 144.3125 170.398438 144.3125 168.089844 C 144.3125 167.183594 144.4375 166.316406 144.683594 165.492188 C 144.929688 164.664062 145.171875 163.960938 145.410156 163.386719 L 151.710938 149.417969 L 129.496094 101.578125 C 129.253906 100.917969 129 100.199219 128.757812 99.410156 C 128.511719 98.632812 128.386719 97.785156 128.386719 96.871094 C 128.386719 94.480469 129.246094 92.421875 130.964844 90.699219 C 132.691406 88.96875 134.835938 88.101562 137.394531 88.101562 C 139.285156 88.101562 141.058594 88.679688 142.710938 89.832031 C 144.355469 90.976562 145.714844 92.75 146.773438 95.140625 L 161.21875 128.285156 L 176.160156 95.140625 C 177.226562 92.75 178.605469 90.984375 180.296875 89.832031 C 181.988281 88.679688 183.738281 88.101562 185.546875 88.101562 Z M 185.546875 88.09375 " fill-opacity="1" fill-rule="nonzero"/></g><path fill="#00254a" d="M 258.871094 88.09375 C 261.496094 88.09375 263.839844 89.066406 265.902344 91.003906 C 267.964844 92.9375 268.992188 95.222656 268.992188 97.859375 L 268.992188 143.730469 C 268.992188 146.449219 267.964844 148.75 265.902344 150.644531 C 263.839844 152.546875 261.496094 153.488281 258.871094 153.488281 C 256.566406 153.488281 254.503906 152.769531 252.695312 151.320312 C 250.878906 149.878906 249.730469 148.046875 249.234375 145.824219 C 248.328125 147.386719 246.511719 149.070312 243.796875 150.882812 C 241.085938 152.703125 237.464844 153.609375 232.933594 153.609375 C 229.570312 153.609375 226.128906 152.949219 222.628906 151.625 C 219.136719 150.304688 215.925781 148.292969 213.003906 145.574219 C 210.074219 142.847656 207.730469 139.429688 205.960938 135.316406 C 204.195312 131.195312 203.320312 126.28125 203.320312 120.589844 C 203.320312 114.902344 204.21875 110.253906 206.027344 106.140625 C 207.835938 102.019531 210.207031 98.585938 213.128906 95.867188 C 216.050781 93.144531 219.261719 91.109375 222.753906 89.757812 C 226.253906 88.398438 229.648438 87.714844 232.933594 87.714844 C 237.140625 87.714844 240.652344 88.6875 243.488281 90.625 C 246.328125 92.558594 248.15625 94.589844 248.988281 96.738281 L 248.988281 97.851562 C 248.988281 95.214844 249.976562 92.929688 251.953125 90.996094 C 253.933594 89.058594 256.238281 88.085938 258.871094 88.085938 Z M 236.644531 136.800781 C 238.453125 136.800781 240.386719 136.304688 242.449219 135.316406 C 244.511719 134.328125 246.253906 132.667969 247.683594 130.320312 C 249.121094 127.964844 249.847656 124.726562 249.847656 120.605469 C 249.847656 116.484375 249.128906 113.378906 247.683594 111.027344 C 246.253906 108.671875 244.503906 107.007812 242.449219 106.027344 C 240.386719 105.039062 238.453125 104.542969 236.644531 104.542969 C 233.105469 104.542969 229.960938 105.902344 227.203125 108.628906 C 224.445312 111.34375 223.066406 115.332031 223.066406 120.605469 C 223.066406 125.878906 224.445312 129.910156 227.203125 132.671875 C 229.960938 135.429688 233.105469 136.800781 236.644531 136.800781 Z M 236.644531 136.800781 " fill-opacity="1" fill-rule="nonzero"/><path fill="#00254a" d="M 304.042969 134.820312 L 332.316406 134.820312 C 334.703125 134.820312 336.78125 135.6875 338.546875 137.417969 C 340.316406 139.148438 341.199219 141.296875 341.199219 143.859375 C 341.199219 146.417969 340.308594 148.425781 338.546875 150.15625 C 336.78125 151.886719 334.703125 152.753906 332.316406 152.753906 L 295.042969 152.753906 C 291.742188 152.753906 289.050781 151.699219 286.945312 149.597656 C 284.839844 147.496094 283.792969 144.800781 283.792969 141.503906 L 283.792969 76.226562 C 283.792969 73.335938 284.800781 70.886719 286.820312 68.859375 C 288.835938 66.839844 291.246094 65.828125 294.046875 65.828125 C 296.851562 65.828125 299.203125 66.839844 301.136719 68.859375 C 303.074219 70.878906 304.042969 73.335938 304.042969 76.226562 Z M 304.042969 134.820312 " fill-opacity="1" fill-rule="nonzero"/><path fill="#00254a" d="M 362.925781 82.648438 C 360.285156 82.648438 357.957031 81.683594 355.941406 79.753906 C 353.925781 77.816406 352.914062 75.566406 352.914062 73.011719 C 352.914062 70.457031 353.925781 68.085938 355.941406 66.15625 C 357.957031 64.21875 360.285156 63.246094 362.925781 63.246094 C 365.566406 63.246094 367.871094 64.21875 369.894531 66.15625 C 371.914062 68.085938 372.921875 70.375 372.921875 73.011719 C 372.921875 75.648438 371.914062 77.816406 369.894531 79.753906 C 367.878906 81.683594 365.558594 82.648438 362.925781 82.648438 Z M 362.925781 88.09375 C 365.550781 88.09375 367.855469 89.066406 369.828125 91.003906 C 371.808594 92.9375 372.792969 95.304688 372.792969 98.105469 L 372.792969 143.480469 C 372.792969 146.277344 371.808594 148.640625 369.828125 150.578125 C 367.847656 152.515625 365.550781 153.488281 362.925781 153.488281 C 360.300781 153.488281 357.980469 152.523438 356.007812 150.578125 C 354.027344 148.640625 353.042969 146.269531 353.042969 143.480469 L 353.042969 98.105469 C 353.042969 95.296875 354.027344 92.9375 356.007812 91.003906 C 357.988281 89.066406 360.292969 88.09375 362.925781 88.09375 Z M 362.925781 88.09375 " fill-opacity="1" fill-rule="nonzero"/><path fill="#00254a" d="M 427.488281 87.847656 C 431.757812 87.847656 435.621094 88.902344 439.078125 91.003906 C 442.539062 93.097656 445.296875 96.394531 447.359375 100.890625 C 449.421875 105.375 450.449219 111.25 450.449219 118.496094 L 450.449219 143.605469 C 450.449219 146.324219 449.480469 148.625 447.542969 150.519531 C 445.609375 152.421875 443.289062 153.363281 440.574219 153.363281 C 437.859375 153.363281 435.652344 152.414062 433.714844 150.519531 C 431.78125 148.625 430.808594 146.316406 430.808594 143.605469 L 430.808594 118.496094 C 430.808594 113.640625 429.800781 110.105469 427.785156 107.886719 C 425.773438 105.65625 423.121094 104.542969 419.828125 104.542969 C 417.269531 104.542969 415.191406 105.0625 413.585938 106.085938 C 411.984375 107.113281 410.738281 108.34375 409.832031 109.785156 C 408.925781 111.234375 408.304688 112.570312 407.976562 113.8125 C 407.644531 115.050781 407.480469 115.832031 407.480469 116.164062 L 407.480469 143.613281 C 407.480469 146.332031 406.496094 148.632812 404.515625 150.527344 C 402.535156 152.425781 400.238281 153.371094 397.613281 153.371094 C 394.988281 153.371094 392.667969 152.421875 390.695312 150.527344 C 388.714844 148.632812 387.726562 146.324219 387.726562 143.613281 L 387.726562 98.113281 C 387.726562 95.304688 388.714844 92.941406 390.695312 91.011719 C 392.675781 89.074219 394.980469 88.101562 397.613281 88.101562 C 400.246094 88.101562 402.542969 89.074219 404.515625 91.011719 C 406.496094 92.941406 407.480469 95.3125 407.480469 98.113281 L 407.480469 101.953125 C 407.644531 100.382812 408.511719 98.503906 410.078125 96.320312 C 411.640625 94.140625 413.878906 92.1875 416.792969 90.457031 C 419.714844 88.726562 423.28125 87.855469 427.488281 87.855469 Z M 427.488281 87.847656 " fill-opacity="1" fill-rule="nonzero"/><g clip-path="url(#a6ae4b8df5)"><path fill="#00254a" d="M 522.523438 138.902344 C 523.183594 139.484375 523.738281 140.285156 524.191406 141.316406 C 524.644531 142.351562 524.875 143.523438 524.875 144.84375 C 524.875 147.066406 524.050781 149.042969 522.40625 150.769531 C 520.757812 152.5 518.742188 153.371094 516.363281 153.371094 C 513.722656 153.371094 511.707031 152.464844 510.304688 150.644531 L 490.929688 128.152344 L 484.996094 133.460938 L 484.996094 143.613281 C 484.996094 146.332031 484.011719 148.632812 482.03125 150.527344 C 480.050781 152.425781 477.753906 153.371094 475.128906 153.371094 C 472.503906 153.371094 470.183594 152.421875 468.210938 150.527344 C 466.230469 148.632812 465.242188 146.324219 465.242188 143.613281 L 465.242188 74.378906 C 465.242188 71.652344 466.230469 69.328125 468.210938 67.382812 C 470.1875 65.445312 472.496094 64.472656 475.128906 64.472656 C 477.761719 64.472656 480.058594 65.445312 482.03125 67.382812 C 484.011719 69.320312 484.996094 71.652344 484.996094 74.378906 L 484.996094 110.46875 L 505.5 90.945312 C 506.308594 90.121094 507.292969 89.4375 508.449219 88.902344 C 509.597656 88.367188 510.835938 88.101562 512.15625 88.101562 C 514.625 88.101562 516.703125 88.992188 518.386719 90.761719 C 520.078125 92.527344 520.921875 94.605469 520.921875 96.996094 C 520.921875 99.558594 520.105469 101.660156 518.46875 103.308594 L 503.28125 117.035156 L 522.53125 138.910156 L 522.523438 138.910156 Z M 522.523438 138.902344 " fill-opacity="1" fill-rule="nonzero"/></g></svg>