<svg xmlns="http://www.w3.org/2000/svg" xmlns:xlink="http://www.w3.org/1999/xlink" width="2048" zoomAndPan="magnify" viewBox="0 0 1536 1535.999932" height="2048" preserveAspectRatio="xMidYMid meet" version="1.0"><defs><clipPath id="cb65eb9c89"><path d="M 661 1022 L 875 1022 L 875 1234.804688 L 661 1234.804688 Z M 661 1022 " clip-rule="nonzero"/></clipPath><clipPath id="995569e7fd"><path d="M 155 301.054688 L 1381 301.054688 L 1381 668 L 155 668 Z M 155 301.054688 " clip-rule="nonzero"/></clipPath></defs><g clip-path="url(#cb65eb9c89)"><path fill="#f4f4f4" d="M 767.949219 1022.289062 C 709.53125 1022.289062 661.625 1070.164062 661.625 1128.613281 C 661.625 1187.0625 709.53125 1234.933594 767.949219 1234.933594 C 826.367188 1234.933594 874.273438 1187.027344 874.273438 1128.613281 C 874.273438 1070.195312 826.367188 1022.289062 767.949219 1022.289062 Z M 767.949219 1022.289062 " fill-opacity="1" fill-rule="nonzero"/></g><path fill="#f4f4f4" d="M 767.949219 770.367188 C 670.257812 770.367188 578.300781 808.6875 509.339844 876.691406 C 481.5625 904.46875 481.5625 949.472656 509.339844 977.25 C 522.75 990.660156 540.9375 998.304688 560.113281 998.304688 C 579.289062 998.304688 597.476562 990.628906 610.886719 977.25 C 653.027344 935.109375 708.574219 912.113281 767.980469 912.113281 C 827.386719 912.113281 883.859375 935.109375 926 977.25 C 939.410156 990.660156 957.597656 998.304688 976.773438 998.304688 C 995.949219 998.304688 1014.105469 990.628906 1027.546875 977.25 C 1055.320312 949.472656 1055.320312 904.46875 1027.546875 876.691406 C 957.628906 808.6875 865.671875 770.367188 767.980469 770.367188 Z M 767.949219 770.367188 " fill-opacity="1" fill-rule="nonzero"/><g clip-path="url(#995569e7fd)"><path fill="#f4f4f4" d="M 1359.859375 546.253906 C 1201.808594 388.203125 991.105469 301.054688 767.949219 301.054688 C 544.792969 301.054688 334.054688 387.28125 176.003906 545.300781 C 148.230469 573.074219 148.230469 618.082031 176.003906 645.859375 C 189.414062 659.265625 207.632812 666.910156 226.777344 666.910156 C 245.921875 666.910156 264.140625 659.234375 277.550781 645.859375 C 407.824219 515.582031 582.152344 443.753906 767.949219 443.753906 C 953.742188 443.753906 1128.070312 515.582031 1259.304688 646.8125 C 1272.710938 660.222656 1290.933594 667.867188 1310.074219 667.867188 C 1329.21875 667.867188 1347.4375 660.191406 1360.847656 646.8125 C 1387.667969 619.039062 1387.667969 574.03125 1359.894531 546.253906 Z M 1359.859375 546.253906 " fill-opacity="1" fill-rule="nonzero"/></g><path fill="#f4f4f4" d="M 767.949219 541.476562 C 608.941406 541.476562 459.523438 602.761719 346.511719 714.851562 C 333.101562 728.257812 325.457031 746.449219 325.457031 765.621094 C 325.457031 784.796875 333.132812 802.953125 346.511719 816.394531 C 359.921875 829.804688 378.109375 837.449219 397.28125 837.449219 C 416.457031 837.449219 434.644531 829.773438 448.054688 816.394531 C 533.292969 731.125 647.292969 684.207031 767.980469 684.207031 C 888.667969 684.207031 1002.636719 731.125 1087.875 816.394531 C 1101.285156 829.804688 1119.472656 837.449219 1138.644531 837.449219 C 1157.820312 837.449219 1176.007812 829.773438 1189.417969 816.394531 C 1202.828125 802.984375 1210.472656 784.765625 1210.472656 765.621094 C 1210.472656 746.480469 1202.796875 728.257812 1189.417969 714.851562 C 1076.40625 603.75 926.988281 541.476562 767.980469 541.476562 Z M 767.949219 541.476562 " fill-opacity="1" fill-rule="nonzero"/></svg>