<svg xmlns="http://www.w3.org/2000/svg" xmlns:xlink="http://www.w3.org/1999/xlink" width="704" zoomAndPan="magnify" viewBox="0 0 528 177.750001" height="237" preserveAspectRatio="xMidYMid meet" version="1.0"><defs><clipPath id="b8f6377b0e"><path d="M 308 0.929688 L 417 0.929688 L 417 34 L 308 34 Z M 308 0.929688 " clip-rule="nonzero"/></clipPath><clipPath id="ebd4827d22"><path d="M 2.917969 65 L 121 65 L 121 154 L 2.917969 154 Z M 2.917969 65 " clip-rule="nonzero"/></clipPath><clipPath id="5789789065"><path d="M 128 87 L 195 87 L 195 176.859375 L 128 176.859375 Z M 128 87 " clip-rule="nonzero"/></clipPath><clipPath id="382282c93b"><path d="M 465 64 L 524.933594 64 L 524.933594 154 L 465 154 Z M 465 64 " clip-rule="nonzero"/></clipPath></defs><path fill="#f4f4f4" d="M 362.5625 42.546875 C 353.886719 42.546875 345.71875 45.953125 339.59375 51.988281 C 337.121094 54.460938 337.121094 58.457031 339.59375 60.917969 C 340.785156 62.113281 342.402344 62.796875 344.101562 62.796875 C 345.800781 62.796875 347.417969 62.113281 348.613281 60.917969 C 352.355469 57.175781 357.289062 55.132812 362.5625 55.132812 C 367.835938 55.132812 372.855469 57.175781 376.601562 60.917969 C 377.789062 62.113281 379.414062 62.796875 381.113281 62.796875 C 382.8125 62.796875 384.425781 62.113281 385.621094 60.917969 C 388.089844 58.457031 388.089844 54.460938 385.621094 51.988281 C 379.40625 45.945312 371.242188 42.546875 362.5625 42.546875 Z M 362.5625 42.546875 " fill-opacity="1" fill-rule="nonzero"/><g clip-path="url(#b8f6377b0e)"><path fill="#f4f4f4" d="M 415.148438 22.632812 C 401.101562 8.601562 382.386719 0.859375 362.5625 0.859375 C 342.738281 0.859375 324.023438 8.511719 309.976562 22.550781 C 307.515625 25.023438 307.515625 29.019531 309.976562 31.488281 C 311.171875 32.675781 312.789062 33.359375 314.488281 33.359375 C 316.183594 33.359375 317.800781 32.675781 318.996094 31.488281 C 330.566406 19.917969 346.050781 13.53125 362.554688 13.53125 C 379.058594 13.53125 394.542969 19.910156 406.203125 31.570312 C 407.390625 32.757812 409.015625 33.441406 410.714844 33.441406 C 412.410156 33.441406 414.027344 32.757812 415.222656 31.570312 C 417.601562 29.101562 417.601562 25.101562 415.140625 22.632812 Z M 415.148438 22.632812 " fill-opacity="1" fill-rule="nonzero"/></g><path fill="#f4f4f4" d="M 362.5625 22.210938 C 348.441406 22.210938 335.164062 27.65625 325.128906 37.617188 C 323.941406 38.800781 323.253906 40.417969 323.253906 42.125 C 323.253906 43.832031 323.933594 45.441406 325.128906 46.632812 C 326.316406 47.828125 327.941406 48.511719 329.640625 48.511719 C 331.335938 48.511719 332.953125 47.828125 334.148438 46.632812 C 341.722656 39.0625 351.84375 34.894531 362.5625 34.894531 C 373.28125 34.894531 383.402344 39.0625 390.976562 46.632812 C 392.171875 47.828125 393.789062 48.511719 395.484375 48.511719 C 397.183594 48.511719 398.800781 47.828125 399.996094 46.632812 C 401.183594 45.449219 401.871094 43.824219 401.871094 42.125 C 401.871094 40.425781 401.191406 38.808594 399.996094 37.617188 C 389.953125 27.742188 376.683594 22.210938 362.5625 22.210938 Z M 362.5625 22.210938 " fill-opacity="1" fill-rule="nonzero"/><g clip-path="url(#ebd4827d22)"><path fill="#f4f4f4" d="M 110.523438 65.753906 C 113.324219 65.753906 115.667969 66.660156 117.554688 68.476562 C 119.445312 70.292969 120.394531 72.429688 120.394531 74.90625 C 120.394531 75.984375 120.230469 77.007812 119.898438 78 C 119.5625 78.980469 119.28125 79.921875 119.027344 80.828125 L 99.277344 145.769531 C 98.453125 148.328125 97.089844 150.21875 95.199219 151.457031 C 93.300781 152.695312 91.074219 153.3125 88.523438 153.3125 C 85.972656 153.3125 83.800781 152.695312 81.988281 151.457031 C 80.171875 150.21875 78.816406 148.328125 77.910156 145.769531 L 61.734375 101.328125 L 45.445312 145.769531 C 44.542969 148.328125 43.175781 150.21875 41.367188 151.457031 C 39.550781 152.695312 37.371094 153.3125 34.816406 153.3125 C 32.265625 153.3125 30.050781 152.695312 28.15625 151.457031 C 26.257812 150.21875 24.902344 148.328125 24.078125 145.769531 L 4.335938 80.820312 C 4 79.914062 3.695312 78.972656 3.40625 77.992188 C 3.117188 77.007812 2.976562 75.976562 2.976562 74.898438 C 2.976562 72.429688 3.917969 70.285156 5.804688 68.46875 C 7.695312 66.660156 10.046875 65.746094 12.847656 65.746094 C 15.074219 65.746094 17.105469 66.347656 18.953125 67.542969 C 20.808594 68.738281 22.023438 70.324219 22.601562 72.304688 L 35.566406 121.316406 L 52.609375 72.304688 C 53.515625 69.835938 54.792969 68.121094 56.445312 67.171875 C 58.09375 66.222656 59.820312 65.746094 61.621094 65.746094 C 63.425781 65.746094 65.085938 66.222656 66.8125 67.171875 C 68.542969 68.121094 69.863281 69.828125 70.769531 72.304688 L 87.8125 121.316406 L 100.777344 72.304688 C 101.339844 70.324219 102.554688 68.746094 104.410156 67.542969 C 106.265625 66.347656 108.304688 65.746094 110.53125 65.746094 Z M 110.523438 65.753906 " fill-opacity="1" fill-rule="nonzero"/></g><g clip-path="url(#5789789065)"><path fill="#f4f4f4" d="M 185.597656 87.984375 C 188.222656 87.984375 190.402344 88.851562 192.128906 90.578125 C 193.859375 92.300781 194.726562 94.355469 194.726562 96.742188 C 194.726562 97.648438 194.601562 98.492188 194.355469 99.28125 C 194.109375 100.066406 193.820312 100.785156 193.488281 101.445312 L 162.492188 169.605469 C 161.417969 171.988281 160.058594 173.753906 158.414062 174.910156 C 156.773438 176.058594 155.007812 176.636719 153.109375 176.636719 C 150.550781 176.636719 148.453125 175.746094 146.804688 173.980469 C 145.167969 172.21875 144.351562 170.183594 144.351562 167.878906 C 144.351562 166.972656 144.476562 166.105469 144.722656 165.28125 C 144.964844 164.460938 145.210938 163.753906 145.449219 163.183594 L 151.753906 149.230469 L 129.53125 101.453125 C 129.285156 100.792969 129.035156 100.074219 128.789062 99.285156 C 128.546875 98.507812 128.417969 97.664062 128.417969 96.75 C 128.417969 94.363281 129.28125 92.308594 131 90.585938 C 132.726562 88.859375 134.871094 87.992188 137.429688 87.992188 C 139.320312 87.992188 141.09375 88.570312 142.75 89.71875 C 144.394531 90.859375 145.753906 92.632812 146.8125 95.023438 L 161.261719 128.125 L 176.207031 95.023438 C 177.273438 92.632812 178.652344 90.867188 180.34375 89.71875 C 182.035156 88.570312 183.785156 87.992188 185.597656 87.992188 Z M 185.597656 87.984375 " fill-opacity="1" fill-rule="nonzero"/></g><path fill="#f4f4f4" d="M 258.941406 87.984375 C 261.566406 87.984375 263.910156 88.957031 265.972656 90.890625 C 268.035156 92.820312 269.066406 95.105469 269.066406 97.738281 L 269.066406 143.550781 C 269.066406 146.265625 268.035156 148.566406 265.972656 150.457031 C 263.910156 152.355469 261.566406 153.296875 258.941406 153.296875 C 256.632812 153.296875 254.574219 152.578125 252.761719 151.132812 C 250.945312 149.691406 249.796875 147.859375 249.300781 145.640625 C 248.394531 147.199219 246.578125 148.882812 243.863281 150.691406 C 241.148438 152.511719 237.527344 153.414062 232.996094 153.414062 C 229.628906 153.414062 226.1875 152.753906 222.6875 151.433594 C 219.195312 150.113281 215.984375 148.105469 213.058594 145.390625 C 210.128906 142.667969 207.785156 139.257812 206.015625 135.148438 C 204.25 131.03125 203.375 126.121094 203.375 120.441406 C 203.375 114.757812 204.269531 110.117188 206.082031 106.007812 C 207.890625 101.890625 210.265625 98.464844 213.1875 95.75 C 216.109375 93.027344 219.320312 90.996094 222.8125 89.644531 C 226.316406 88.289062 229.710938 87.605469 232.996094 87.605469 C 237.203125 87.605469 240.71875 88.578125 243.550781 90.511719 C 246.390625 92.441406 248.222656 94.472656 249.054688 96.617188 L 249.054688 97.730469 C 249.054688 95.097656 250.042969 92.8125 252.019531 90.882812 C 254 88.949219 256.308594 87.976562 258.941406 87.976562 Z M 236.707031 136.632812 C 238.515625 136.632812 240.449219 136.132812 242.511719 135.148438 C 244.574219 134.160156 246.316406 132.5 247.75 130.15625 C 249.1875 127.804688 249.914062 124.570312 249.914062 120.453125 C 249.914062 116.339844 249.195312 113.238281 247.75 110.886719 C 246.316406 108.535156 244.566406 106.875 242.511719 105.894531 C 240.449219 104.910156 238.515625 104.410156 236.707031 104.410156 C 233.167969 104.410156 230.023438 105.769531 227.265625 108.492188 C 224.503906 111.207031 223.125 115.1875 223.125 120.453125 C 223.125 125.71875 224.503906 129.746094 227.265625 132.507812 C 230.023438 135.257812 233.167969 136.632812 236.707031 136.632812 Z M 236.707031 136.632812 " fill-opacity="1" fill-rule="nonzero"/><path fill="#f4f4f4" d="M 304.125 134.652344 L 332.40625 134.652344 C 334.792969 134.652344 336.871094 135.519531 338.636719 137.246094 C 340.410156 138.976562 341.289062 141.117188 341.289062 143.675781 C 341.289062 146.234375 340.402344 148.238281 338.636719 149.964844 C 336.871094 151.695312 334.792969 152.5625 332.40625 152.5625 L 295.121094 152.5625 C 291.820312 152.5625 289.128906 151.507812 287.023438 149.410156 C 284.914062 147.3125 283.871094 144.617188 283.871094 141.324219 L 283.871094 76.132812 C 283.871094 73.246094 284.878906 70.796875 286.894531 68.773438 C 288.914062 66.757812 291.324219 65.746094 294.128906 65.746094 C 296.929688 65.746094 299.28125 66.757812 301.21875 68.773438 C 303.152344 70.792969 304.125 73.246094 304.125 76.132812 Z M 304.125 134.652344 " fill-opacity="1" fill-rule="nonzero"/><path fill="#f4f4f4" d="M 363.023438 82.546875 C 360.382812 82.546875 358.054688 81.582031 356.035156 79.65625 C 354.019531 77.71875 353.007812 75.472656 353.007812 72.917969 C 353.007812 70.367188 354.019531 68.003906 356.035156 66.074219 C 358.054688 64.136719 360.382812 63.167969 363.023438 63.167969 C 365.664062 63.167969 367.96875 64.136719 369.996094 66.074219 C 372.011719 68.003906 373.019531 70.285156 373.019531 72.917969 C 373.019531 75.554688 372.011719 77.71875 369.996094 79.65625 C 367.976562 81.582031 365.65625 82.546875 363.023438 82.546875 Z M 363.023438 87.984375 C 365.648438 87.984375 367.953125 88.957031 369.925781 90.890625 C 371.90625 92.820312 372.894531 95.183594 372.894531 97.980469 L 372.894531 143.296875 C 372.894531 146.09375 371.90625 148.453125 369.925781 150.390625 C 367.945312 152.324219 365.648438 153.296875 363.023438 153.296875 C 360.398438 153.296875 358.074219 152.332031 356.101562 150.390625 C 354.121094 148.453125 353.136719 146.085938 353.136719 143.296875 L 353.136719 97.980469 C 353.136719 95.179688 354.121094 92.820312 356.101562 90.890625 C 358.082031 88.957031 360.390625 87.984375 363.023438 87.984375 Z M 363.023438 87.984375 " fill-opacity="1" fill-rule="nonzero"/><path fill="#f4f4f4" d="M 427.601562 87.738281 C 431.875 87.738281 435.738281 88.792969 439.195312 90.890625 C 442.65625 92.984375 445.417969 96.277344 447.476562 100.761719 C 449.539062 105.242188 450.570312 111.109375 450.570312 118.347656 L 450.570312 143.425781 C 450.570312 146.140625 449.601562 148.4375 447.664062 150.328125 C 445.726562 152.230469 443.40625 153.171875 440.691406 153.171875 C 437.976562 153.171875 435.765625 152.222656 433.832031 150.328125 C 431.894531 148.4375 430.925781 146.132812 430.925781 143.425781 L 430.925781 118.347656 C 430.925781 113.496094 429.914062 109.96875 427.898438 107.75 C 425.886719 105.523438 423.234375 104.410156 419.941406 104.410156 C 417.378906 104.410156 415.304688 104.929688 413.695312 105.953125 C 412.09375 106.976562 410.847656 108.210938 409.941406 109.648438 C 409.035156 111.09375 408.414062 112.429688 408.085938 113.667969 C 407.753906 114.90625 407.589844 115.6875 407.589844 116.019531 L 407.589844 143.433594 C 407.589844 146.148438 406.605469 148.445312 404.625 150.335938 C 402.644531 152.234375 400.34375 153.179688 397.71875 153.179688 C 395.09375 153.179688 392.773438 152.230469 390.796875 150.335938 C 388.820312 148.445312 387.832031 146.140625 387.832031 143.433594 L 387.832031 97.988281 C 387.832031 95.183594 388.820312 92.828125 390.796875 90.898438 C 392.777344 88.960938 395.085938 87.992188 397.71875 87.992188 C 400.351562 87.992188 402.652344 88.960938 404.625 90.898438 C 406.605469 92.828125 407.589844 95.191406 407.589844 97.988281 L 407.589844 101.824219 C 407.753906 100.257812 408.621094 98.382812 410.1875 96.203125 C 411.75 94.019531 413.992188 92.070312 416.90625 90.34375 C 419.828125 88.613281 423.394531 87.746094 427.601562 87.746094 Z M 427.601562 87.738281 " fill-opacity="1" fill-rule="nonzero"/><g clip-path="url(#382282c93b)"><path fill="#f4f4f4" d="M 522.664062 138.730469 C 523.324219 139.308594 523.878906 140.109375 524.332031 141.140625 C 524.785156 142.171875 525.015625 143.34375 525.015625 144.664062 C 525.015625 146.882812 524.191406 148.855469 522.542969 150.582031 C 520.898438 152.308594 518.878906 153.179688 516.5 153.179688 C 513.859375 153.179688 511.84375 152.273438 510.441406 150.457031 L 491.058594 127.992188 L 485.125 133.292969 L 485.125 143.433594 C 485.125 146.148438 484.140625 148.445312 482.160156 150.335938 C 480.179688 152.234375 477.878906 153.179688 475.253906 153.179688 C 472.628906 153.179688 470.308594 152.230469 468.335938 150.335938 C 466.355469 148.445312 465.367188 146.140625 465.367188 143.433594 L 465.367188 74.285156 C 465.367188 71.5625 466.355469 69.242188 468.335938 67.296875 C 470.316406 65.363281 472.621094 64.390625 475.253906 64.390625 C 477.886719 64.390625 480.1875 65.363281 482.160156 67.296875 C 484.140625 69.234375 485.125 71.5625 485.125 74.285156 L 485.125 110.332031 L 505.632812 90.832031 C 506.441406 90.007812 507.429688 89.324219 508.585938 88.792969 C 509.734375 88.257812 510.972656 87.992188 512.292969 87.992188 C 514.765625 87.992188 516.839844 88.882812 518.523438 90.644531 C 520.214844 92.410156 521.0625 94.488281 521.0625 96.875 C 521.0625 99.433594 520.246094 101.535156 518.605469 103.179688 L 503.417969 116.886719 L 522.671875 138.738281 L 522.664062 138.738281 Z M 522.664062 138.730469 " fill-opacity="1" fill-rule="nonzero"/></g></svg>