<svg xmlns="http://www.w3.org/2000/svg" xmlns:xlink="http://www.w3.org/1999/xlink" width="2048" zoomAndPan="magnify" viewBox="0 0 1536 1535.999932" height="2048" preserveAspectRatio="xMidYMid meet" version="1.0"><defs><clipPath id="fa7f2af4e7"><path d="M 641 1071 L 895 1071 L 895 1324.421875 L 641 1324.421875 Z M 641 1071 " clip-rule="nonzero"/></clipPath><clipPath id="822105fb04"><path d="M 37 211.421875 L 1499 211.421875 L 1499 649 L 37 649 Z M 37 211.421875 " clip-rule="nonzero"/></clipPath></defs><g clip-path="url(#fa7f2af4e7)"><path fill="#000000" d="M 767.9375 1071.109375 C 698.308594 1071.109375 641.207031 1128.171875 641.207031 1197.839844 C 641.207031 1267.511719 698.308594 1324.574219 767.9375 1324.574219 C 837.570312 1324.574219 894.671875 1267.472656 894.671875 1197.839844 C 894.671875 1128.210938 837.570312 1071.109375 767.9375 1071.109375 Z M 767.9375 1071.109375 " fill-opacity="1" fill-rule="nonzero"/></g><path fill="#000000" d="M 767.9375 770.828125 C 651.496094 770.828125 541.882812 816.503906 459.6875 897.5625 C 426.578125 930.667969 426.578125 984.316406 459.6875 1017.421875 C 475.667969 1033.40625 497.347656 1042.519531 520.203125 1042.519531 C 543.0625 1042.519531 564.738281 1033.367188 580.722656 1017.421875 C 630.953125 967.191406 697.167969 939.78125 767.976562 939.78125 C 838.785156 939.78125 906.101562 967.191406 956.332031 1017.421875 C 972.316406 1033.40625 993.992188 1042.519531 1016.851562 1042.519531 C 1039.707031 1042.519531 1061.347656 1033.367188 1077.371094 1017.421875 C 1110.476562 984.316406 1110.476562 930.667969 1077.371094 897.5625 C 994.03125 816.503906 884.421875 770.828125 767.976562 770.828125 Z M 767.9375 770.828125 " fill-opacity="1" fill-rule="nonzero"/><g clip-path="url(#822105fb04)"><path fill="#000000" d="M 1473.476562 503.691406 C 1285.085938 315.300781 1033.933594 211.421875 767.9375 211.421875 C 501.941406 211.421875 250.753906 314.199219 62.363281 502.554688 C 29.253906 535.660156 29.253906 589.308594 62.363281 622.414062 C 78.347656 638.398438 100.0625 647.511719 122.882812 647.511719 C 145.699219 647.511719 167.417969 638.359375 183.398438 622.414062 C 338.683594 467.128906 546.476562 381.515625 767.9375 381.515625 C 989.398438 381.515625 1197.191406 467.128906 1353.617188 623.554688 C 1369.601562 639.539062 1391.316406 648.648438 1414.136719 648.648438 C 1436.953125 648.648438 1458.671875 639.5 1474.65625 623.554688 C 1506.625 590.445312 1506.625 536.800781 1473.515625 503.691406 Z M 1473.476562 503.691406 " fill-opacity="1" fill-rule="nonzero"/></g><path fill="#000000" d="M 767.9375 497.996094 C 578.40625 497.996094 400.304688 571.046875 265.597656 704.652344 C 249.613281 720.636719 240.503906 742.316406 240.503906 765.171875 C 240.503906 788.027344 249.652344 809.667969 265.597656 825.691406 C 281.582031 841.675781 303.261719 850.785156 326.117188 850.785156 C 348.972656 850.785156 370.652344 841.636719 386.636719 825.691406 C 488.238281 724.050781 624.121094 668.128906 767.976562 668.128906 C 911.832031 668.128906 1047.679688 724.050781 1149.277344 825.691406 C 1165.261719 841.675781 1186.941406 850.785156 1209.796875 850.785156 C 1232.652344 850.785156 1254.332031 841.636719 1270.316406 825.691406 C 1286.300781 809.707031 1295.414062 787.988281 1295.414062 765.171875 C 1295.414062 742.351562 1286.261719 720.636719 1270.316406 704.652344 C 1135.609375 572.222656 957.507812 497.996094 767.976562 497.996094 Z M 767.9375 497.996094 " fill-opacity="1" fill-rule="nonzero"/></svg>