<?xml version="1.0" standalone="no"?>
<!DOCTYPE svg PUBLIC "-//W3C//DTD SVG 1.1//EN" "http://www.w3.org/Graphics/SVG/1.1/DTD/svg11.dtd">
<svg xmlns="http://www.w3.org/2000/svg" xmlns:xlink="http://www.w3.org/1999/xlink" width="557.25" zoomAndPan="magnify" viewBox="0 0 557.25 217.499994" height="217.5" preserveAspectRatio="xMidYMid meet" version="1.0"><defs><g/><clipPath id="510735c312"><rect x="0" width="484" y="0" height="181"/></clipPath><clipPath id="2a9f3b118d"><path d="M 247 78 L 270 78 L 270 99.914062 L 247 99.914062 Z M 247 78 " clip-rule="nonzero"/></clipPath><clipPath id="12802e2d22"><path d="M 195.667969 4.132812 L 322 4.132812 L 322 42 L 195.667969 42 Z M 195.667969 4.132812 " clip-rule="nonzero"/></clipPath></defs><g transform="matrix(1, 0, 0, 1, 36, 35)"><g clip-path="url(#510735c312)"><g fill="#00254a" fill-opacity="1"><g transform="translate(1.466885, 149.693439)"><g><path d="M 20.140625 -103.34375 C 23.179688 -103.34375 25.800781 -102.210938 28 -99.953125 C 30.207031 -97.703125 31.3125 -95.054688 31.3125 -92.015625 L 31.3125 -10.140625 C 31.3125 -7.109375 30.207031 -4.460938 28 -2.203125 C 25.800781 0.046875 23.179688 1.171875 20.140625 1.171875 C 17.097656 1.171875 14.445312 0.046875 12.1875 -2.203125 C 9.9375 -4.460938 8.8125 -7.109375 8.8125 -10.140625 L 8.8125 -92.015625 C 8.8125 -95.054688 9.9375 -97.703125 12.1875 -99.953125 C 14.445312 -102.210938 17.097656 -103.34375 20.140625 -103.34375 Z M 20.140625 -103.34375 "/></g></g></g><g fill="#00254a" fill-opacity="1"><g transform="translate(41.596562, 149.693439)"><g><path d="M 54.828125 -77.171875 C 59.828125 -77.171875 64.410156 -75.96875 68.578125 -73.5625 C 72.742188 -71.164062 76.070312 -67.347656 78.5625 -62.109375 C 81.0625 -56.867188 82.3125 -49.984375 82.3125 -41.453125 L 82.3125 -9.84375 C 82.3125 -6.90625 81.257812 -4.40625 79.15625 -2.34375 C 77.050781 -0.289062 74.53125 0.734375 71.59375 0.734375 C 68.75 0.734375 66.25 -0.289062 64.09375 -2.34375 C 61.9375 -4.40625 60.859375 -6.90625 60.859375 -9.84375 L 60.859375 -41.453125 C 60.859375 -47.523438 59.507812 -51.957031 56.8125 -54.75 C 54.113281 -57.550781 50.757812 -58.953125 46.75 -58.953125 C 43.613281 -58.953125 40.988281 -58.3125 38.875 -57.03125 C 36.769531 -55.757812 35.101562 -54.21875 33.875 -52.40625 C 32.65625 -50.59375 31.773438 -48.875 31.234375 -47.25 C 30.691406 -45.632812 30.375 -44.488281 30.28125 -43.8125 L 30.28125 -9.84375 C 30.28125 -6.90625 29.226562 -4.40625 27.125 -2.34375 C 25.019531 -0.289062 22.492188 0.734375 19.546875 0.734375 C 16.609375 0.734375 14.082031 -0.289062 11.96875 -2.34375 C 9.863281 -4.40625 8.8125 -6.90625 8.8125 -9.84375 L 8.8125 -66 C 8.8125 -69.039062 9.863281 -71.613281 11.96875 -73.71875 C 14.082031 -75.820312 16.609375 -76.875 19.546875 -76.875 C 22.492188 -76.875 25.019531 -75.820312 27.125 -73.71875 C 29.226562 -71.613281 30.28125 -69.039062 30.28125 -66 L 30.28125 -60.125 C 30.476562 -61.988281 31.53125 -64.242188 33.4375 -66.890625 C 35.351562 -69.535156 38.097656 -71.910156 41.671875 -74.015625 C 45.253906 -76.117188 49.640625 -77.171875 54.828125 -77.171875 Z M 54.828125 -77.171875 "/></g></g></g><g fill="#00254a" fill-opacity="1"><g transform="translate(132.733544, 149.693439)"><g><path d="M 35.421875 -77.328125 C 40.328125 -77.328125 44.984375 -76.441406 49.390625 -74.671875 C 53.796875 -72.910156 57.226562 -70.316406 59.6875 -66.890625 C 60.175781 -66.296875 60.738281 -65.4375 61.375 -64.3125 C 62.007812 -63.1875 62.328125 -61.738281 62.328125 -59.96875 C 62.328125 -57.320312 61.539062 -55.3125 59.96875 -53.9375 C 58.40625 -52.570312 56.445312 -51.890625 54.09375 -51.890625 C 52.53125 -51.890625 51.007812 -52.207031 49.53125 -52.84375 C 48.0625 -53.476562 46.644531 -54.582031 45.28125 -56.15625 C 43.8125 -57.71875 42.335938 -58.816406 40.859375 -59.453125 C 39.390625 -60.097656 37.820312 -60.421875 36.15625 -60.421875 C 33.8125 -60.421875 31.953125 -59.878906 30.578125 -58.796875 C 29.203125 -57.722656 28.515625 -56.351562 28.515625 -54.6875 C 28.515625 -54 28.832031 -53.015625 29.46875 -51.734375 C 30.101562 -50.460938 31.941406 -49.390625 34.984375 -48.515625 L 43.953125 -46.015625 C 47.671875 -44.929688 51.144531 -43.484375 54.375 -41.671875 C 57.613281 -39.859375 60.238281 -37.53125 62.25 -34.6875 C 64.257812 -31.84375 65.265625 -28.171875 65.265625 -23.671875 C 65.265625 -18.179688 63.769531 -13.625 60.78125 -10 C 57.789062 -6.375 53.96875 -3.675781 49.3125 -1.90625 C 44.664062 -0.144531 39.789062 0.734375 34.6875 0.734375 C 27.925781 0.734375 22.582031 -0.390625 18.65625 -2.640625 C 14.738281 -4.898438 11.753906 -7.109375 9.703125 -9.265625 C 9.304688 -9.753906 8.445312 -10.953125 7.125 -12.859375 C 5.800781 -14.773438 5.140625 -16.957031 5.140625 -19.40625 C 5.140625 -21.164062 5.75 -22.953125 6.96875 -24.765625 C 8.195312 -26.578125 10.332031 -27.484375 13.375 -27.484375 C 15.53125 -27.484375 17.269531 -26.941406 18.59375 -25.859375 C 19.914062 -24.785156 21.066406 -23.710938 22.046875 -22.640625 C 24.304688 -20.191406 26.460938 -18.570312 28.515625 -17.78125 C 30.578125 -17 32.632812 -16.609375 34.6875 -16.609375 C 37.925781 -16.609375 40.28125 -17.21875 41.75 -18.4375 C 43.21875 -19.664062 43.953125 -21.015625 43.953125 -22.484375 C 43.953125 -23.273438 43.554688 -24.351562 42.765625 -25.71875 C 41.984375 -27.09375 39.878906 -28.269531 36.453125 -29.25 L 28.8125 -31.609375 C 21.363281 -33.765625 15.945312 -36.800781 12.5625 -40.71875 C 9.1875 -44.632812 7.5 -49.238281 7.5 -54.53125 C 7.5 -59.726562 8.867188 -63.992188 11.609375 -67.328125 C 14.359375 -70.660156 17.863281 -73.160156 22.125 -74.828125 C 26.382812 -76.492188 30.816406 -77.328125 35.421875 -77.328125 Z M 35.421875 -77.328125 "/></g></g></g><g fill="#00254a" fill-opacity="1"><g transform="translate(203.144225, 149.693439)"><g><path d="M 19.703125 -85.265625 C 16.753906 -85.265625 14.203125 -86.316406 12.046875 -88.421875 C 9.890625 -90.523438 8.8125 -93 8.8125 -95.84375 C 8.8125 -98.6875 9.890625 -101.160156 12.046875 -103.265625 C 14.203125 -105.367188 16.753906 -106.421875 19.703125 -106.421875 C 22.640625 -106.421875 25.1875 -105.367188 27.34375 -103.265625 C 29.5 -101.160156 30.578125 -98.6875 30.578125 -95.84375 C 30.578125 -93 29.5 -90.523438 27.34375 -88.421875 C 25.1875 -86.316406 22.640625 -85.265625 19.703125 -85.265625 Z M 19.703125 -76.875 C 22.640625 -76.875 25.160156 -75.820312 27.265625 -73.71875 C 29.367188 -71.613281 30.421875 -69.039062 30.421875 -66 L 30.421875 -10 C 30.421875 -6.957031 29.367188 -4.382812 27.265625 -2.28125 C 25.160156 -0.175781 22.640625 0.875 19.703125 0.875 C 16.753906 0.875 14.226562 -0.175781 12.125 -2.28125 C 10.019531 -4.382812 8.96875 -6.957031 8.96875 -10 L 8.96875 -66 C 8.96875 -69.039062 10.019531 -71.613281 12.125 -73.71875 C 14.226562 -75.820312 16.753906 -76.875 19.703125 -76.875 Z M 19.703125 -76.875 "/></g></g></g><g fill="#00254a" fill-opacity="1"><g transform="translate(242.538918, 149.693439)"><g><path d="M 83.34375 -66.296875 L 83.34375 -9.703125 C 83.34375 -9.304688 83.316406 -8.910156 83.265625 -8.515625 C 83.222656 -8.128906 83.15625 -7.738281 83.0625 -7.34375 L 83.0625 -1.46875 C 83.0625 4.507812 81.832031 9.53125 79.375 13.59375 C 76.925781 17.664062 73.738281 20.898438 69.8125 23.296875 C 65.894531 25.703125 61.734375 27.441406 57.328125 28.515625 C 52.921875 29.597656 48.753906 30.140625 44.828125 30.140625 C 40.328125 30.140625 36.359375 29.695312 32.921875 28.8125 C 29.492188 27.925781 26.945312 27.140625 25.28125 26.453125 C 20.582031 24.492188 18.234375 21.457031 18.234375 17.34375 C 18.234375 14.800781 19.0625 12.742188 20.71875 11.171875 C 22.382812 9.597656 24.347656 8.8125 26.609375 8.8125 C 27.097656 8.8125 27.660156 8.835938 28.296875 8.890625 C 28.929688 8.941406 29.738281 9.113281 30.71875 9.40625 C 32.1875 9.601562 34.097656 10.046875 36.453125 10.734375 C 38.804688 11.421875 41.648438 11.765625 44.984375 11.765625 C 50.671875 11.765625 54.859375 10.414062 57.546875 7.71875 C 60.242188 5.019531 61.59375 1.957031 61.59375 -1.46875 L 61.59375 -9.265625 C 60.613281 -7.109375 58.40625 -4.851562 54.96875 -2.5 C 51.539062 -0.144531 46.988281 1.03125 41.3125 1.03125 C 37.289062 1.03125 33.195312 0.25 29.03125 -1.3125 C 24.863281 -2.882812 21.039062 -5.285156 17.5625 -8.515625 C 14.082031 -11.753906 11.265625 -15.847656 9.109375 -20.796875 C 6.953125 -25.742188 5.875 -31.550781 5.875 -38.21875 C 5.875 -44.78125 6.953125 -50.507812 9.109375 -55.40625 C 11.265625 -60.3125 14.082031 -64.378906 17.5625 -67.609375 C 21.039062 -70.847656 24.863281 -73.273438 29.03125 -74.890625 C 33.195312 -76.515625 37.289062 -77.328125 41.3125 -77.328125 C 46.40625 -77.328125 50.765625 -76.148438 54.390625 -73.796875 C 58.015625 -71.441406 60.460938 -68.742188 61.734375 -65.703125 L 61.734375 -66.296875 C 61.734375 -69.140625 62.785156 -71.613281 64.890625 -73.71875 C 67.003906 -75.820312 69.53125 -76.875 72.46875 -76.875 C 75.3125 -76.875 77.832031 -75.820312 80.03125 -73.71875 C 82.238281 -71.613281 83.34375 -69.140625 83.34375 -66.296875 Z M 45.28125 -17.34375 C 47.726562 -17.34375 50.296875 -18.003906 52.984375 -19.328125 C 55.679688 -20.648438 57.960938 -22.828125 59.828125 -25.859375 C 61.691406 -28.898438 62.625 -33.019531 62.625 -38.21875 C 62.625 -43.414062 61.691406 -47.507812 59.828125 -50.5 C 57.960938 -53.488281 55.679688 -55.644531 52.984375 -56.96875 C 50.296875 -58.289062 47.726562 -58.953125 45.28125 -58.953125 C 42.332031 -58.953125 39.488281 -58.164062 36.75 -56.59375 C 34.007812 -55.03125 31.753906 -52.726562 29.984375 -49.6875 C 28.222656 -46.644531 27.34375 -42.820312 27.34375 -38.21875 C 27.34375 -33.613281 28.222656 -29.765625 29.984375 -26.671875 C 31.753906 -23.585938 34.007812 -21.257812 36.75 -19.6875 C 39.488281 -18.125 42.332031 -17.34375 45.28125 -17.34375 Z M 45.28125 -17.34375 "/></g></g></g><g fill="#00254a" fill-opacity="1"><g transform="translate(334.704874, 149.693439)"><g><path d="M 54.828125 -77.171875 C 59.828125 -77.171875 64.410156 -75.96875 68.578125 -73.5625 C 72.742188 -71.164062 76.070312 -67.347656 78.5625 -62.109375 C 81.0625 -56.867188 82.3125 -49.984375 82.3125 -41.453125 L 82.3125 -9.84375 C 82.3125 -6.90625 81.257812 -4.40625 79.15625 -2.34375 C 77.050781 -0.289062 74.53125 0.734375 71.59375 0.734375 C 68.75 0.734375 66.25 -0.289062 64.09375 -2.34375 C 61.9375 -4.40625 60.859375 -6.90625 60.859375 -9.84375 L 60.859375 -41.453125 C 60.859375 -47.523438 59.507812 -51.957031 56.8125 -54.75 C 54.113281 -57.550781 50.757812 -58.953125 46.75 -58.953125 C 43.613281 -58.953125 40.988281 -58.3125 38.875 -57.03125 C 36.769531 -55.757812 35.101562 -54.21875 33.875 -52.40625 C 32.65625 -50.59375 31.773438 -48.875 31.234375 -47.25 C 30.691406 -45.632812 30.375 -44.488281 30.28125 -43.8125 L 30.28125 -9.84375 C 30.28125 -6.90625 29.226562 -4.40625 27.125 -2.34375 C 25.019531 -0.289062 22.492188 0.734375 19.546875 0.734375 C 16.609375 0.734375 14.082031 -0.289062 11.96875 -2.34375 C 9.863281 -4.40625 8.8125 -6.90625 8.8125 -9.84375 L 8.8125 -94.234375 C 8.8125 -97.171875 9.863281 -99.691406 11.96875 -101.796875 C 14.082031 -103.898438 16.609375 -104.953125 19.546875 -104.953125 C 22.492188 -104.953125 25.019531 -103.898438 27.125 -101.796875 C 29.226562 -99.691406 30.28125 -97.171875 30.28125 -94.234375 L 30.28125 -60.125 C 30.476562 -61.988281 31.53125 -64.242188 33.4375 -66.890625 C 35.351562 -69.535156 38.097656 -71.910156 41.671875 -74.015625 C 45.253906 -76.117188 49.640625 -77.171875 54.828125 -77.171875 Z M 54.828125 -77.171875 "/></g></g></g><g fill="#00254a" fill-opacity="1"><g transform="translate(424.371836, 149.693439)"><g><path d="M 46.59375 -18.234375 C 48.945312 -18.328125 50.8125 -17.6875 52.1875 -16.3125 C 53.5625 -14.945312 54.25 -13.035156 54.25 -10.578125 C 54.25 -6.953125 52.703125 -4.160156 49.609375 -2.203125 C 46.523438 -0.242188 42.238281 0.734375 36.75 0.734375 C 34.101562 0.734375 31.503906 0.441406 28.953125 -0.140625 C 26.410156 -0.734375 24.082031 -1.9375 21.96875 -3.75 C 19.863281 -5.5625 18.195312 -8.15625 16.96875 -11.53125 C 15.75 -14.914062 15.140625 -19.398438 15.140625 -24.984375 L 15.140625 -59.6875 L 11.609375 -59.6875 C 8.960938 -59.6875 6.851562 -60.46875 5.28125 -62.03125 C 3.71875 -63.601562 2.9375 -65.613281 2.9375 -68.0625 C 2.9375 -70.507812 3.71875 -72.515625 5.28125 -74.078125 C 6.851562 -75.648438 8.960938 -76.4375 11.609375 -76.4375 L 15.140625 -76.4375 L 15.140625 -85.703125 C 15.140625 -88.640625 16.21875 -91.160156 18.375 -93.265625 C 20.53125 -95.378906 23.03125 -96.4375 25.875 -96.4375 C 28.8125 -96.4375 31.332031 -95.378906 33.4375 -93.265625 C 35.550781 -91.160156 36.609375 -88.640625 36.609375 -85.703125 L 36.609375 -76.4375 L 45.71875 -76.4375 C 48.363281 -76.4375 50.445312 -75.648438 51.96875 -74.078125 C 53.488281 -72.515625 54.25 -70.507812 54.25 -68.0625 C 54.25 -65.613281 53.488281 -63.601562 51.96875 -62.03125 C 50.445312 -60.46875 48.363281 -59.6875 45.71875 -59.6875 L 36.609375 -59.6875 L 36.609375 -24.25 C 36.609375 -19.9375 38.078125 -17.78125 41.015625 -17.78125 C 41.796875 -17.78125 42.722656 -17.878906 43.796875 -18.078125 C 44.878906 -18.273438 45.8125 -18.328125 46.59375 -18.234375 Z M 46.59375 -18.234375 "/></g></g></g></g></g><g clip-path="url(#2a9f3b118d)"><path fill="#00254a" d="M 258.894531 78.105469 C 252.882812 78.105469 247.953125 83.015625 247.953125 89.007812 C 247.953125 95.003906 252.882812 99.914062 258.894531 99.914062 C 264.90625 99.914062 269.835938 95 269.835938 89.007812 C 269.835938 83.015625 264.90625 78.105469 258.894531 78.105469 Z M 258.894531 78.105469 " fill-opacity="1" fill-rule="nonzero"/></g><path fill="#36b1b3" d="M 258.894531 52.265625 C 248.839844 52.265625 239.378906 56.195312 232.28125 63.171875 C 229.421875 66.019531 229.421875 70.636719 232.28125 73.484375 C 233.660156 74.859375 235.53125 75.644531 237.507812 75.644531 C 239.480469 75.644531 241.351562 74.855469 242.730469 73.484375 C 247.066406 69.164062 252.785156 66.804688 258.894531 66.804688 C 265.007812 66.804688 270.820312 69.164062 275.15625 73.484375 C 276.535156 74.859375 278.410156 75.644531 280.382812 75.644531 C 282.355469 75.644531 284.222656 74.855469 285.605469 73.484375 C 288.464844 70.636719 288.464844 66.019531 285.605469 63.171875 C 278.410156 56.195312 268.949219 52.265625 258.894531 52.265625 Z M 258.894531 52.265625 " fill-opacity="1" fill-rule="nonzero"/><g clip-path="url(#12802e2d22)"><path fill="#36b1b3" d="M 319.804688 29.28125 C 303.539062 13.070312 281.855469 4.132812 258.894531 4.132812 C 235.929688 4.132812 214.242188 12.976562 197.980469 29.183594 C 195.121094 32.03125 195.121094 36.648438 197.980469 39.496094 C 199.359375 40.871094 201.234375 41.65625 203.203125 41.65625 C 205.175781 41.65625 207.050781 40.867188 208.429688 39.496094 C 221.835938 26.136719 239.773438 18.769531 258.894531 18.769531 C 278.011719 18.769531 295.949219 26.136719 309.457031 39.59375 C 310.835938 40.96875 312.710938 41.753906 314.679688 41.753906 C 316.648438 41.753906 318.523438 40.964844 319.90625 39.59375 C 322.664062 36.746094 322.664062 32.128906 319.804688 29.28125 Z M 319.804688 29.28125 " fill-opacity="1" fill-rule="nonzero"/></g><path fill="#36b1b3" d="M 258.894531 28.792969 C 242.53125 28.792969 227.15625 35.078125 215.527344 46.574219 C 214.144531 47.949219 213.359375 49.8125 213.359375 51.78125 C 213.359375 53.746094 214.148438 55.609375 215.527344 56.988281 C 216.90625 58.363281 218.777344 59.148438 220.75 59.148438 C 222.722656 59.148438 224.59375 58.359375 225.976562 56.988281 C 234.746094 48.242188 246.476562 43.429688 258.894531 43.429688 C 271.316406 43.429688 283.042969 48.242188 291.816406 56.988281 C 293.195312 58.363281 295.066406 59.148438 297.039062 59.148438 C 299.011719 59.148438 300.882812 58.359375 302.265625 56.988281 C 303.644531 55.613281 304.429688 53.742188 304.429688 51.78125 C 304.429688 49.816406 303.640625 47.949219 302.265625 46.574219 C 290.632812 35.179688 275.257812 28.792969 258.894531 28.792969 Z M 258.894531 28.792969 " fill-opacity="1" fill-rule="nonzero"/></svg>