<svg xmlns="http://www.w3.org/2000/svg" xmlns:xlink="http://www.w3.org/1999/xlink" width="2048" zoomAndPan="magnify" viewBox="0 0 1536 1535.999932" height="2048" preserveAspectRatio="xMidYMid meet" version="1.0"><defs><clipPath id="333a7ac710"><path d="M 661 1022 L 875 1022 L 875 1234.804688 L 661 1234.804688 Z M 661 1022 " clip-rule="nonzero"/></clipPath><clipPath id="e12e6f9512"><path d="M 155 301.054688 L 1381 301.054688 L 1381 668 L 155 668 Z M 155 301.054688 " clip-rule="nonzero"/></clipPath></defs><g clip-path="url(#333a7ac710)"><path fill="#00254a" d="M 767.800781 1022.1875 C 709.398438 1022.1875 661.503906 1070.054688 661.503906 1128.496094 C 661.503906 1186.9375 709.398438 1234.804688 767.800781 1234.804688 C 826.207031 1234.804688 874.101562 1186.90625 874.101562 1128.496094 C 874.101562 1070.089844 826.207031 1022.1875 767.800781 1022.1875 Z M 767.800781 1022.1875 " fill-opacity="1" fill-rule="nonzero"/></g><path fill="#36b1b3" d="M 767.800781 770.304688 C 670.132812 770.304688 578.199219 808.617188 509.253906 876.613281 C 481.484375 904.382812 481.484375 949.382812 509.253906 977.15625 C 522.660156 990.5625 540.84375 998.207031 560.015625 998.207031 C 579.1875 998.207031 597.367188 990.53125 610.777344 977.15625 C 652.90625 935.019531 708.445312 912.027344 767.835938 912.027344 C 827.222656 912.027344 883.683594 935.019531 925.816406 977.15625 C 939.222656 990.5625 957.40625 998.207031 976.578125 998.207031 C 995.746094 998.207031 1013.898438 990.53125 1027.335938 977.15625 C 1055.105469 949.382812 1055.105469 904.382812 1027.335938 876.613281 C 957.4375 808.617188 865.5 770.304688 767.835938 770.304688 Z M 767.800781 770.304688 " fill-opacity="1" fill-rule="nonzero"/><g clip-path="url(#e12e6f9512)"><path fill="#36b1b3" d="M 1359.574219 546.222656 C 1201.558594 388.191406 990.90625 301.054688 767.800781 301.054688 C 544.699219 301.054688 334.011719 387.269531 176 545.265625 C 148.230469 573.039062 148.230469 618.039062 176 645.808594 C 189.40625 659.21875 207.621094 666.863281 226.761719 666.863281 C 245.898438 666.863281 264.113281 659.1875 277.519531 645.808594 C 407.765625 515.550781 582.050781 443.734375 767.800781 443.734375 C 953.550781 443.734375 1127.839844 515.550781 1259.039062 646.765625 C 1272.445312 660.171875 1290.660156 667.816406 1309.800781 667.816406 C 1328.9375 667.816406 1347.152344 660.140625 1360.558594 646.765625 C 1387.375 618.992188 1387.375 573.992188 1359.605469 546.222656 Z M 1359.574219 546.222656 " fill-opacity="1" fill-rule="nonzero"/></g><path fill="#36b1b3" d="M 767.800781 541.445312 C 608.832031 541.445312 459.449219 602.71875 346.464844 714.792969 C 333.058594 728.199219 325.414062 746.386719 325.414062 765.558594 C 325.414062 784.730469 333.089844 802.882812 346.464844 816.324219 C 359.871094 829.730469 378.054688 837.375 397.226562 837.375 C 416.394531 837.375 434.578125 829.699219 447.984375 816.324219 C 533.203125 731.066406 647.175781 684.15625 767.835938 684.15625 C 888.492188 684.15625 1002.433594 731.066406 1087.652344 816.324219 C 1101.058594 829.730469 1119.242188 837.375 1138.410156 837.375 C 1157.582031 837.375 1175.765625 829.699219 1189.171875 816.324219 C 1202.578125 802.914062 1210.222656 784.699219 1210.222656 765.558594 C 1210.222656 746.417969 1202.546875 728.199219 1189.171875 714.792969 C 1076.1875 603.707031 926.804688 541.445312 767.835938 541.445312 Z M 767.800781 541.445312 " fill-opacity="1" fill-rule="nonzero"/></svg>