<svg xmlns="http://www.w3.org/2000/svg" xmlns:xlink="http://www.w3.org/1999/xlink" width="557" zoomAndPan="magnify" viewBox="0 0 417.75 163.5" height="218" preserveAspectRatio="xMidYMid meet" version="1.0"><defs><clipPath id="0bd904b0d1"><path d="M 89.808594 57.683594 L 106 57.683594 L 106 73.855469 L 89.808594 73.855469 Z M 89.808594 57.683594 " clip-rule="nonzero"/></clipPath><clipPath id="b6e76896b1"><path d="M 51.25 3.167969 L 144.574219 3.167969 L 144.574219 31 L 51.25 31 Z M 51.25 3.167969 " clip-rule="nonzero"/></clipPath></defs><path fill="#f4f4f4" d="M 46.066406 121.996094 L 72.308594 121.996094 C 74.261719 121.996094 75.941406 122.683594 77.347656 124.058594 C 78.761719 125.429688 79.472656 127.160156 79.472656 129.257812 C 79.472656 131.285156 78.761719 132.980469 77.347656 134.355469 C 75.941406 135.734375 74.261719 136.421875 72.308594 136.421875 L 38.789062 136.421875 C 36.1875 136.421875 34.039062 135.574219 32.332031 133.871094 C 30.632812 132.175781 29.785156 130.019531 29.785156 127.414062 L 29.785156 68.515625 C 29.785156 66.203125 30.578125 64.230469 32.171875 62.597656 C 33.761719 60.96875 35.714844 60.15625 38.027344 60.15625 C 40.269531 60.15625 42.171875 60.96875 43.722656 62.597656 C 45.285156 64.230469 46.066406 66.203125 46.066406 68.515625 Z M 46.066406 121.996094 " fill-opacity="1" fill-rule="nonzero"/><path fill="#f4f4f4" d="M 97.808594 73.496094 C 95.632812 73.496094 93.75 72.71875 92.160156 71.167969 C 90.570312 69.617188 89.773438 67.789062 89.773438 65.6875 C 89.773438 63.589844 90.570312 61.765625 92.160156 60.210938 C 93.75 58.660156 95.632812 57.882812 97.808594 57.882812 C 99.976562 57.882812 101.859375 58.660156 103.449219 60.210938 C 105.039062 61.765625 105.835938 63.589844 105.835938 65.6875 C 105.835938 67.789062 105.039062 69.617188 103.449219 71.167969 C 101.859375 72.71875 99.976562 73.496094 97.808594 73.496094 Z M 97.808594 79.6875 C 99.976562 79.6875 101.835938 80.464844 103.390625 82.015625 C 104.941406 83.570312 105.71875 85.46875 105.71875 87.714844 L 105.71875 129.039062 C 105.71875 131.285156 104.941406 133.1875 103.390625 134.738281 C 101.835938 136.289062 99.976562 137.066406 97.808594 137.066406 C 95.632812 137.066406 93.769531 136.289062 92.21875 134.738281 C 90.664062 133.1875 89.886719 131.285156 89.886719 129.039062 L 89.886719 87.714844 C 89.886719 85.46875 90.664062 83.570312 92.21875 82.015625 C 93.769531 80.464844 95.632812 79.6875 97.808594 79.6875 Z M 97.808594 79.6875 " fill-opacity="1" fill-rule="nonzero"/><path fill="#f4f4f4" d="M 152.804688 79.46875 C 156.496094 79.46875 159.875 80.355469 162.953125 82.132812 C 166.023438 83.902344 168.480469 86.71875 170.320312 90.585938 C 172.164062 94.453125 173.085938 99.53125 173.085938 105.828125 L 173.085938 129.15625 C 173.085938 131.324219 172.308594 133.167969 170.757812 134.691406 C 169.203125 136.207031 167.34375 136.960938 165.175781 136.960938 C 163.078125 136.960938 161.234375 136.207031 159.644531 134.691406 C 158.050781 133.167969 157.253906 131.324219 157.253906 129.15625 L 157.253906 105.828125 C 157.253906 101.347656 156.257812 98.078125 154.269531 96.015625 C 152.277344 93.949219 149.800781 92.914062 146.84375 92.914062 C 144.527344 92.914062 142.589844 93.386719 141.03125 94.332031 C 139.476562 95.273438 138.246094 96.40625 137.339844 97.746094 C 136.441406 99.082031 135.789062 100.351562 135.394531 101.550781 C 134.992188 102.742188 134.757812 103.589844 134.691406 104.085938 L 134.691406 129.15625 C 134.691406 131.324219 133.910156 133.167969 132.359375 134.691406 C 130.804688 136.207031 128.941406 136.960938 126.769531 136.960938 C 124.601562 136.960938 122.734375 136.207031 121.175781 134.691406 C 119.621094 133.167969 118.847656 131.324219 118.847656 129.15625 L 118.847656 87.714844 C 118.847656 85.46875 119.621094 83.570312 121.175781 82.015625 C 122.734375 80.464844 124.601562 79.6875 126.769531 79.6875 C 128.941406 79.6875 130.804688 80.464844 132.359375 82.015625 C 133.910156 83.570312 134.691406 85.46875 134.691406 87.714844 L 134.691406 92.050781 C 134.832031 90.675781 135.613281 89.011719 137.019531 87.054688 C 138.429688 85.105469 140.457031 83.351562 143.09375 81.796875 C 145.738281 80.246094 148.976562 79.46875 152.804688 79.46875 Z M 152.804688 79.46875 " fill-opacity="1" fill-rule="nonzero"/><path fill="#f4f4f4" d="M 235.789062 125.351562 C 236.296875 125.859375 236.75 126.511719 237.152344 127.3125 C 237.550781 128.105469 237.75 129.007812 237.75 130.019531 C 237.75 131.828125 237.082031 133.441406 235.746094 134.851562 C 234.40625 136.257812 232.761719 136.960938 230.808594 136.960938 C 228.78125 136.960938 227.148438 136.242188 225.921875 134.792969 L 207.703125 114.175781 L 201.945312 119.492188 L 201.945312 129.15625 C 201.945312 131.324219 201.167969 133.167969 199.617188 134.691406 C 198.0625 136.207031 196.199219 136.960938 194.027344 136.960938 C 191.859375 136.960938 189.992188 136.207031 188.433594 134.691406 C 186.878906 133.167969 186.105469 131.324219 186.105469 129.15625 L 186.105469 66.875 C 186.105469 64.710938 186.878906 62.851562 188.433594 61.296875 C 189.992188 59.746094 191.859375 58.964844 194.027344 58.964844 C 196.199219 58.964844 198.0625 59.746094 199.617188 61.296875 C 201.167969 62.851562 201.945312 64.710938 201.945312 66.875 L 201.945312 100.949219 L 221.585938 81.960938 C 222.234375 81.3125 223.050781 80.777344 224.027344 80.34375 C 225.003906 79.90625 225.960938 79.6875 226.898438 79.6875 C 228.921875 79.6875 230.621094 80.410156 231.996094 81.855469 C 233.371094 83.304688 234.0625 84.964844 234.0625 86.847656 C 234.0625 88.941406 233.40625 90.640625 232.101562 91.945312 L 217.675781 105.171875 Z M 235.789062 125.351562 " fill-opacity="1" fill-rule="nonzero"/><path fill="#f4f4f4" d="M 283.746094 59.726562 C 288.519531 59.726562 293.144531 60.671875 297.628906 62.554688 C 302.109375 64.429688 306.140625 67.085938 309.722656 70.519531 C 313.304688 73.957031 316.160156 78.042969 318.292969 82.777344 C 320.429688 87.515625 321.496094 92.738281 321.496094 98.449219 C 321.496094 104.164062 320.429688 109.390625 318.292969 114.132812 C 316.160156 118.867188 313.304688 122.953125 309.722656 126.386719 C 306.140625 129.824219 302.109375 132.484375 297.628906 134.367188 C 293.144531 136.246094 288.519531 137.179688 283.746094 137.179688 C 278.972656 137.179688 274.324219 136.246094 269.804688 134.367188 C 265.285156 132.484375 261.230469 129.824219 257.648438 126.386719 C 254.066406 122.953125 251.207031 118.867188 249.070312 114.132812 C 246.941406 109.390625 245.878906 104.164062 245.878906 98.449219 C 245.878906 92.738281 246.941406 87.515625 249.070312 82.777344 C 251.207031 78.042969 254.066406 73.957031 257.648438 70.519531 C 261.230469 67.085938 265.285156 64.429688 269.804688 62.554688 C 274.324219 60.671875 278.972656 59.726562 283.746094 59.726562 Z M 283.746094 75.238281 C 279.984375 75.238281 276.53125 76.214844 273.378906 78.164062 C 270.234375 80.121094 267.71875 82.832031 265.835938 86.308594 C 263.960938 89.773438 263.023438 93.820312 263.023438 98.449219 C 263.023438 103.078125 263.960938 107.128906 265.835938 110.601562 C 267.71875 114.070312 270.234375 116.78125 273.378906 118.742188 C 276.53125 120.699219 279.984375 121.671875 283.746094 121.671875 C 287.503906 121.671875 290.933594 120.699219 294.042969 118.742188 C 297.15625 116.78125 299.667969 114.070312 301.582031 110.601562 C 303.503906 107.128906 304.464844 103.078125 304.464844 98.449219 C 304.464844 93.820312 303.523438 89.773438 301.640625 86.308594 C 299.765625 82.832031 297.25 80.121094 294.101562 78.164062 C 290.953125 76.214844 287.503906 75.238281 283.746094 75.238281 Z M 283.746094 75.238281 " fill-opacity="1" fill-rule="nonzero"/><path fill="#f4f4f4" d="M 357.289062 59.726562 C 361.992188 59.726562 365.824219 60.429688 368.785156 61.835938 C 371.75 63.246094 374.355469 65.074219 376.601562 67.316406 C 377.832031 68.691406 378.734375 69.941406 379.3125 71.0625 C 379.890625 72.1875 380.175781 73.355469 380.175781 74.578125 C 380.175781 76.394531 379.527344 77.917969 378.226562 79.144531 C 376.929688 80.375 375.335938 80.992188 373.453125 80.992188 C 372.300781 80.992188 371.144531 80.683594 369.984375 80.070312 C 368.832031 79.453125 367.851562 78.75 367.054688 77.945312 C 365.53125 76.570312 364.136719 75.578125 362.871094 74.960938 C 361.605469 74.347656 359.964844 74.039062 357.945312 74.039062 C 354.976562 74.039062 352.714844 74.726562 351.152344 76.101562 C 349.601562 77.480469 348.824219 79.214844 348.824219 81.3125 C 348.824219 82.683594 349.292969 84.109375 350.230469 85.589844 C 351.175781 87.078125 353.207031 88.433594 356.320312 89.664062 L 359.894531 90.964844 C 365.894531 93.132812 370.652344 95.375 374.15625 97.6875 C 377.667969 100.003906 380.203125 102.503906 381.757812 105.183594 C 383.308594 107.859375 384.085938 110.898438 384.085938 114.292969 C 384.085938 118.121094 383.234375 121.484375 381.539062 124.382812 C 379.835938 127.273438 377.613281 129.660156 374.863281 131.542969 C 372.117188 133.417969 369.113281 134.828125 365.855469 135.773438 C 362.605469 136.710938 359.386719 137.179688 356.203125 137.179688 C 352.082031 137.179688 347.996094 136.40625 343.945312 134.851562 C 339.894531 133.292969 336.457031 130.960938 333.636719 127.851562 C 333.0625 127.132812 332.335938 126.066406 331.46875 124.660156 C 330.597656 123.246094 330.167969 121.636719 330.167969 119.828125 C 330.167969 118.160156 330.710938 116.605469 331.792969 115.15625 C 332.882812 113.714844 334.550781 112.988281 336.785156 112.988281 C 338.589844 112.988281 340.109375 113.460938 341.339844 114.394531 C 342.570312 115.335938 343.617188 116.386719 344.488281 117.542969 C 346.371094 119.644531 348.378906 121.039062 350.507812 121.730469 C 352.644531 122.417969 354.507812 122.757812 356.101562 122.757812 C 357.613281 122.757812 359.238281 122.523438 360.976562 122.054688 C 362.714844 121.578125 364.210938 120.722656 365.476562 119.492188 C 366.742188 118.265625 367.378906 116.53125 367.378906 114.292969 C 367.378906 111.832031 366.527344 109.828125 364.828125 108.273438 C 363.128906 106.714844 360.21875 105.136719 356.101562 103.546875 L 352.191406 102.140625 C 348.433594 100.695312 345.066406 99.070312 342.101562 97.261719 C 339.132812 95.457031 336.78125 93.25 335.042969 90.640625 C 333.316406 88.035156 332.449219 84.855469 332.449219 81.09375 C 332.449219 76.683594 333.570312 72.882812 335.804688 69.703125 C 338.046875 66.519531 341.050781 64.0625 344.8125 62.332031 C 348.578125 60.597656 352.734375 59.726562 357.289062 59.726562 Z M 357.289062 59.726562 " fill-opacity="1" fill-rule="nonzero"/><g clip-path="url(#0bd904b0d1)"><path fill="#f4f4f4" d="M 97.910156 57.761719 C 93.472656 57.761719 89.835938 61.382812 89.835938 65.804688 C 89.835938 70.230469 93.472656 73.855469 97.910156 73.855469 C 102.34375 73.855469 105.984375 70.226562 105.984375 65.804688 C 105.984375 61.382812 102.34375 57.761719 97.910156 57.761719 Z M 97.910156 57.761719 " fill-opacity="1" fill-rule="nonzero"/></g><path fill="#f4f4f4" d="M 97.910156 38.691406 C 90.488281 38.691406 83.507812 41.589844 78.269531 46.738281 C 76.160156 48.839844 76.160156 52.25 78.269531 54.351562 C 79.289062 55.363281 80.671875 55.945312 82.125 55.945312 C 83.582031 55.945312 84.960938 55.363281 85.980469 54.351562 C 89.183594 51.160156 93.398438 49.421875 97.910156 49.421875 C 102.421875 49.421875 106.710938 51.160156 109.914062 54.351562 C 110.929688 55.363281 112.3125 55.945312 113.765625 55.945312 C 115.222656 55.945312 116.605469 55.363281 117.625 54.351562 C 119.730469 52.25 119.730469 48.839844 117.625 46.738281 C 112.3125 41.589844 105.328125 38.691406 97.910156 38.691406 Z M 97.910156 38.691406 " fill-opacity="1" fill-rule="nonzero"/><g clip-path="url(#b6e76896b1)"><path fill="#f4f4f4" d="M 142.859375 21.730469 C 130.855469 9.765625 114.855469 3.167969 97.910156 3.167969 C 80.960938 3.167969 64.960938 9.695312 52.957031 21.65625 C 50.84375 23.757812 50.84375 27.164062 52.957031 29.265625 C 53.972656 30.28125 55.355469 30.859375 56.8125 30.859375 C 58.265625 30.859375 59.648438 30.277344 60.667969 29.265625 C 70.558594 19.40625 83.800781 13.972656 97.910156 13.972656 C 112.015625 13.972656 125.257812 19.40625 135.222656 29.339844 C 136.242188 30.355469 137.625 30.933594 139.078125 30.933594 C 140.535156 30.933594 141.917969 30.351562 142.933594 29.339844 C 144.96875 27.238281 144.96875 23.832031 142.863281 21.730469 Z M 142.859375 21.730469 " fill-opacity="1" fill-rule="nonzero"/></g><path fill="#f4f4f4" d="M 97.910156 21.367188 C 85.832031 21.367188 74.488281 26.007812 65.90625 34.492188 C 64.886719 35.503906 64.304688 36.878906 64.304688 38.332031 C 64.304688 39.785156 64.886719 41.160156 65.90625 42.175781 C 66.921875 43.191406 68.304688 43.769531 69.757812 43.769531 C 71.21875 43.769531 72.597656 43.1875 73.617188 42.175781 C 80.085938 35.722656 88.746094 32.167969 97.910156 32.167969 C 107.074219 32.167969 115.730469 35.722656 122.203125 42.175781 C 123.222656 43.191406 124.601562 43.769531 126.058594 43.769531 C 127.519531 43.769531 128.898438 43.1875 129.917969 42.175781 C 130.933594 41.160156 131.515625 39.78125 131.515625 38.332031 C 131.515625 36.882812 130.929688 35.503906 129.917969 34.492188 C 121.335938 26.082031 109.988281 21.367188 97.910156 21.367188 Z M 97.910156 21.367188 " fill-opacity="1" fill-rule="nonzero"/></svg>