<svg xmlns="http://www.w3.org/2000/svg" xmlns:xlink="http://www.w3.org/1999/xlink" width="557" zoomAndPan="magnify" viewBox="0 0 417.75 163.5" height="218" preserveAspectRatio="xMidYMid meet" version="1.0"><defs><clipPath id="033cf3b0fd"><path d="M 89.808594 57.613281 L 106 57.613281 L 106 73.769531 L 89.808594 73.769531 Z M 89.808594 57.613281 " clip-rule="nonzero"/></clipPath><clipPath id="c7592d99d2"><path d="M 51.25 3.164062 L 144.574219 3.164062 L 144.574219 31 L 51.25 31 Z M 51.25 3.164062 " clip-rule="nonzero"/></clipPath></defs><path fill="#00254a" d="M 46.066406 121.851562 L 72.308594 121.851562 C 74.261719 121.851562 75.941406 122.542969 77.347656 123.914062 C 78.761719 125.28125 79.472656 127.011719 79.472656 129.109375 C 79.472656 131.128906 78.761719 132.828125 77.347656 134.199219 C 75.941406 135.578125 74.261719 136.261719 72.308594 136.261719 L 38.789062 136.261719 C 36.1875 136.261719 34.039062 135.414062 32.332031 133.714844 C 30.632812 132.019531 29.785156 129.871094 29.785156 127.265625 L 29.785156 68.433594 C 29.785156 66.125 30.578125 64.15625 32.171875 62.527344 C 33.761719 60.898438 35.714844 60.085938 38.027344 60.085938 C 40.269531 60.085938 42.171875 60.898438 43.722656 62.527344 C 45.285156 64.15625 46.066406 66.125 46.066406 68.433594 Z M 46.066406 121.851562 " fill-opacity="1" fill-rule="nonzero"/><path fill="#00254a" d="M 97.808594 73.410156 C 95.632812 73.410156 93.75 72.636719 92.160156 71.082031 C 90.570312 69.535156 89.773438 67.707031 89.773438 65.613281 C 89.773438 63.515625 90.570312 61.695312 92.160156 60.140625 C 93.75 58.59375 95.632812 57.816406 97.808594 57.816406 C 99.976562 57.816406 101.859375 58.59375 103.449219 60.140625 C 105.039062 61.695312 105.835938 63.515625 105.835938 65.613281 C 105.835938 67.707031 105.039062 69.535156 103.449219 71.082031 C 101.859375 72.636719 99.976562 73.410156 97.808594 73.410156 Z M 97.808594 79.59375 C 99.976562 79.59375 101.835938 80.371094 103.390625 81.921875 C 104.941406 83.472656 105.71875 85.371094 105.71875 87.613281 L 105.71875 128.890625 C 105.71875 131.132812 104.941406 133.03125 103.390625 134.582031 C 101.835938 136.132812 99.976562 136.90625 97.808594 136.90625 C 95.632812 136.90625 93.769531 136.132812 92.21875 134.582031 C 90.664062 133.03125 89.886719 131.132812 89.886719 128.890625 L 89.886719 87.613281 C 89.886719 85.371094 90.664062 83.472656 92.21875 81.921875 C 93.769531 80.371094 95.632812 79.59375 97.808594 79.59375 Z M 97.808594 79.59375 " fill-opacity="1" fill-rule="nonzero"/><path fill="#00254a" d="M 152.804688 79.375 C 156.496094 79.375 159.875 80.261719 162.953125 82.035156 C 166.023438 83.804688 168.480469 86.617188 170.320312 90.480469 C 172.164062 94.34375 173.085938 99.417969 173.085938 105.707031 L 173.085938 129.003906 C 173.085938 131.171875 172.308594 133.015625 170.757812 134.535156 C 169.203125 136.050781 167.34375 136.804688 165.175781 136.804688 C 163.078125 136.804688 161.234375 136.050781 159.644531 134.535156 C 158.050781 133.015625 157.253906 131.171875 157.253906 129.003906 L 157.253906 105.707031 C 157.253906 101.230469 156.257812 97.964844 154.269531 95.902344 C 152.277344 93.839844 149.800781 92.804688 146.84375 92.804688 C 144.527344 92.804688 142.589844 93.277344 141.03125 94.222656 C 139.476562 95.160156 138.246094 96.296875 137.339844 97.632812 C 136.441406 98.96875 135.789062 100.234375 135.394531 101.433594 C 134.992188 102.625 134.757812 103.46875 134.691406 103.964844 L 134.691406 129.003906 C 134.691406 131.171875 133.910156 133.015625 132.359375 134.535156 C 130.804688 136.050781 128.941406 136.804688 126.769531 136.804688 C 124.601562 136.804688 122.734375 136.050781 121.175781 134.535156 C 119.621094 133.015625 118.847656 131.171875 118.847656 129.003906 L 118.847656 87.613281 C 118.847656 85.371094 119.621094 83.472656 121.175781 81.921875 C 122.734375 80.371094 124.601562 79.59375 126.769531 79.59375 C 128.941406 79.59375 130.804688 80.371094 132.359375 81.921875 C 133.910156 83.472656 134.691406 85.371094 134.691406 87.613281 L 134.691406 91.941406 C 134.832031 90.570312 135.613281 88.90625 137.019531 86.953125 C 138.429688 85.003906 140.457031 83.253906 143.09375 81.703125 C 145.738281 80.152344 148.976562 79.375 152.804688 79.375 Z M 152.804688 79.375 " fill-opacity="1" fill-rule="nonzero"/><path fill="#00254a" d="M 235.789062 125.203125 C 236.296875 125.710938 236.75 126.367188 237.152344 127.164062 C 237.550781 127.953125 237.75 128.855469 237.75 129.871094 C 237.75 131.675781 237.082031 133.285156 235.746094 134.695312 C 234.40625 136.101562 232.761719 136.804688 230.808594 136.804688 C 228.78125 136.804688 227.148438 136.082031 225.921875 134.636719 L 207.703125 114.042969 L 201.945312 119.355469 L 201.945312 129.003906 C 201.945312 131.171875 201.167969 133.015625 199.617188 134.535156 C 198.0625 136.050781 196.199219 136.804688 194.027344 136.804688 C 191.859375 136.804688 189.992188 136.050781 188.433594 134.535156 C 186.878906 133.015625 186.105469 131.171875 186.105469 129.003906 L 186.105469 66.800781 C 186.105469 64.632812 186.878906 62.777344 188.433594 61.222656 C 189.992188 59.675781 191.859375 58.898438 194.027344 58.898438 C 196.199219 58.898438 198.0625 59.675781 199.617188 61.222656 C 201.167969 62.777344 201.945312 64.632812 201.945312 66.800781 L 201.945312 100.832031 L 221.585938 81.863281 C 222.234375 81.21875 223.050781 80.683594 224.027344 80.25 C 225.003906 79.8125 225.960938 79.59375 226.898438 79.59375 C 228.921875 79.59375 230.621094 80.316406 231.996094 81.761719 C 233.371094 83.207031 234.0625 84.867188 234.0625 86.746094 C 234.0625 88.839844 233.40625 90.535156 232.101562 91.839844 L 217.675781 105.050781 Z M 235.789062 125.203125 " fill-opacity="1" fill-rule="nonzero"/><path fill="#00254a" d="M 283.746094 59.65625 C 288.519531 59.65625 293.144531 60.601562 297.628906 62.480469 C 302.109375 64.355469 306.140625 67.007812 309.722656 70.4375 C 313.304688 73.871094 316.160156 77.953125 318.292969 82.683594 C 320.429688 87.414062 321.496094 92.628906 321.496094 98.335938 C 321.496094 104.042969 320.429688 109.261719 318.292969 114 C 316.160156 118.730469 313.304688 122.808594 309.722656 126.242188 C 306.140625 129.675781 302.109375 132.332031 297.628906 134.210938 C 293.144531 136.085938 288.519531 137.023438 283.746094 137.023438 C 278.972656 137.023438 274.324219 136.085938 269.804688 134.210938 C 265.285156 132.332031 261.230469 129.675781 257.648438 126.242188 C 254.066406 122.808594 251.207031 118.730469 249.070312 114 C 246.941406 109.261719 245.878906 104.042969 245.878906 98.335938 C 245.878906 92.628906 246.941406 87.414062 249.070312 82.683594 C 251.207031 77.953125 254.066406 73.871094 257.648438 70.4375 C 261.230469 67.007812 265.285156 64.355469 269.804688 62.480469 C 274.324219 60.601562 278.972656 59.65625 283.746094 59.65625 Z M 283.746094 75.148438 C 279.984375 75.148438 276.53125 76.125 273.378906 78.074219 C 270.234375 80.027344 267.71875 82.738281 265.835938 86.207031 C 263.960938 89.671875 263.023438 93.714844 263.023438 98.335938 C 263.023438 102.957031 263.960938 107.003906 265.835938 110.472656 C 267.71875 113.9375 270.234375 116.648438 273.378906 118.605469 C 276.53125 120.558594 279.984375 121.53125 283.746094 121.53125 C 287.503906 121.53125 290.933594 120.558594 294.042969 118.605469 C 297.15625 116.648438 299.667969 113.9375 301.582031 110.472656 C 303.503906 107.003906 304.464844 102.957031 304.464844 98.335938 C 304.464844 93.714844 303.523438 89.671875 301.640625 86.207031 C 299.765625 82.738281 297.25 80.027344 294.101562 78.074219 C 290.953125 76.125 287.503906 75.148438 283.746094 75.148438 Z M 283.746094 75.148438 " fill-opacity="1" fill-rule="nonzero"/><path fill="#00254a" d="M 357.289062 59.65625 C 361.992188 59.65625 365.824219 60.359375 368.785156 61.765625 C 371.75 63.171875 374.355469 64.996094 376.601562 67.238281 C 377.832031 68.613281 378.734375 69.859375 379.3125 70.980469 C 379.890625 72.101562 380.175781 73.273438 380.175781 74.492188 C 380.175781 76.308594 379.527344 77.828125 378.226562 79.054688 C 376.929688 80.285156 375.335938 80.898438 373.453125 80.898438 C 372.300781 80.898438 371.144531 80.589844 369.984375 79.976562 C 368.832031 79.363281 367.851562 78.65625 367.054688 77.855469 C 365.53125 76.484375 364.136719 75.488281 362.871094 74.871094 C 361.605469 74.257812 359.964844 73.953125 357.945312 73.953125 C 354.976562 73.953125 352.714844 74.640625 351.152344 76.011719 C 349.601562 77.390625 348.824219 79.121094 348.824219 81.21875 C 348.824219 82.585938 349.292969 84.011719 350.230469 85.492188 C 351.175781 86.976562 353.207031 88.332031 356.320312 89.558594 L 359.894531 90.859375 C 365.894531 93.023438 370.652344 95.265625 374.15625 97.574219 C 377.667969 99.886719 380.203125 102.382812 381.757812 105.0625 C 383.308594 107.734375 384.085938 110.769531 384.085938 114.160156 C 384.085938 117.984375 383.234375 121.34375 381.539062 124.238281 C 379.835938 127.125 377.613281 129.507812 374.863281 131.390625 C 372.117188 133.265625 369.113281 134.671875 365.855469 135.617188 C 362.605469 136.550781 359.386719 137.023438 356.203125 137.023438 C 352.082031 137.023438 347.996094 136.246094 343.945312 134.695312 C 339.894531 133.136719 336.457031 130.808594 333.636719 127.703125 C 333.0625 126.984375 332.335938 125.917969 331.46875 124.515625 C 330.597656 123.101562 330.167969 121.492188 330.167969 119.6875 C 330.167969 118.023438 330.710938 116.46875 331.792969 115.023438 C 332.882812 113.582031 334.550781 112.859375 336.785156 112.859375 C 338.589844 112.859375 340.109375 113.328125 341.339844 114.261719 C 342.570312 115.203125 343.617188 116.25 344.488281 117.40625 C 346.371094 119.503906 348.378906 120.898438 350.507812 121.589844 C 352.644531 122.273438 354.507812 122.613281 356.101562 122.613281 C 357.613281 122.613281 359.238281 122.378906 360.976562 121.910156 C 362.714844 121.4375 364.210938 120.582031 365.476562 119.355469 C 366.742188 118.128906 367.378906 116.394531 367.378906 114.160156 C 367.378906 111.703125 366.527344 109.699219 364.828125 108.148438 C 363.128906 106.589844 360.21875 105.015625 356.101562 103.425781 L 352.191406 102.019531 C 348.433594 100.578125 345.066406 98.953125 342.101562 97.148438 C 339.132812 95.34375 336.78125 93.140625 335.042969 90.535156 C 333.316406 87.933594 332.449219 84.753906 332.449219 81 C 332.449219 76.59375 333.570312 72.800781 335.804688 69.621094 C 338.046875 66.441406 341.050781 63.988281 344.8125 62.261719 C 348.578125 60.527344 352.734375 59.65625 357.289062 59.65625 Z M 357.289062 59.65625 " fill-opacity="1" fill-rule="nonzero"/><g clip-path="url(#033cf3b0fd)"><path fill="#00254a" d="M 97.910156 57.691406 C 93.472656 57.691406 89.835938 61.3125 89.835938 65.730469 C 89.835938 70.148438 93.472656 73.769531 97.910156 73.769531 C 102.34375 73.769531 105.984375 70.144531 105.984375 65.730469 C 105.984375 61.3125 102.34375 57.691406 97.910156 57.691406 Z M 97.910156 57.691406 " fill-opacity="1" fill-rule="nonzero"/></g><path fill="#36b1b3" d="M 97.910156 38.644531 C 90.488281 38.644531 83.507812 41.542969 78.269531 46.683594 C 76.160156 48.785156 76.160156 52.1875 78.269531 54.285156 C 79.289062 55.300781 80.671875 55.878906 82.125 55.878906 C 83.582031 55.878906 84.960938 55.296875 85.980469 54.285156 C 89.183594 51.101562 93.398438 49.363281 97.910156 49.363281 C 102.421875 49.363281 106.710938 51.101562 109.914062 54.285156 C 110.929688 55.300781 112.3125 55.878906 113.765625 55.878906 C 115.222656 55.878906 116.605469 55.296875 117.625 54.285156 C 119.730469 52.1875 119.730469 48.785156 117.625 46.683594 C 112.3125 41.542969 105.328125 38.644531 97.910156 38.644531 Z M 97.910156 38.644531 " fill-opacity="1" fill-rule="nonzero"/><g clip-path="url(#c7592d99d2)"><path fill="#36b1b3" d="M 142.859375 21.703125 C 130.855469 9.753906 114.855469 3.164062 97.910156 3.164062 C 80.960938 3.164062 64.960938 9.683594 52.957031 21.632812 C 50.84375 23.730469 50.84375 27.132812 52.957031 29.234375 C 53.972656 30.246094 55.355469 30.824219 56.8125 30.824219 C 58.265625 30.824219 59.648438 30.242188 60.667969 29.234375 C 70.558594 19.386719 83.800781 13.953125 97.910156 13.953125 C 112.015625 13.953125 125.257812 19.386719 135.222656 29.304688 C 136.242188 30.320312 137.625 30.898438 139.078125 30.898438 C 140.535156 30.898438 141.917969 30.316406 142.933594 29.304688 C 144.96875 27.207031 144.96875 23.800781 142.863281 21.703125 Z M 142.859375 21.703125 " fill-opacity="1" fill-rule="nonzero"/></g><path fill="#36b1b3" d="M 97.910156 21.34375 C 85.832031 21.34375 74.488281 25.976562 65.90625 34.449219 C 64.886719 35.464844 64.304688 36.835938 64.304688 38.289062 C 64.304688 39.738281 64.886719 41.109375 65.90625 42.125 C 66.921875 43.140625 68.304688 43.71875 69.757812 43.71875 C 71.21875 43.71875 72.597656 43.136719 73.617188 42.125 C 80.085938 35.679688 88.746094 32.132812 97.910156 32.132812 C 107.074219 32.132812 115.730469 35.679688 122.203125 42.125 C 123.222656 43.140625 124.601562 43.71875 126.058594 43.71875 C 127.519531 43.71875 128.898438 43.136719 129.917969 42.125 C 130.933594 41.113281 131.515625 39.734375 131.515625 38.289062 C 131.515625 36.839844 130.929688 35.464844 129.917969 34.449219 C 121.335938 26.050781 109.988281 21.34375 97.910156 21.34375 Z M 97.910156 21.34375 " fill-opacity="1" fill-rule="nonzero"/></svg>